<svg width="16" height="24" viewBox="0 0 16 24" fill="none" xmlns="http://www.w3.org/2000/svg">
<path fill-rule="evenodd" clip-rule="evenodd" d="M8.0001 0C8.34891 0 8.63168 0.277893 8.63168 0.620692V1.65518C8.63168 1.99798 8.34891 2.27587 8.0001 2.27587C7.65129 2.27587 7.36852 1.99798 7.36852 1.65518V0.620692C7.36852 0.277893 7.65129 0 8.0001 0Z" fill="#232536"/>
<path fill-rule="evenodd" clip-rule="evenodd" d="M4.39948 0.652073C4.70156 0.480674 5.08783 0.58239 5.26223 0.879262L5.78855 1.77515C5.96296 2.07203 5.85946 2.45164 5.55738 2.62304C5.2553 2.79444 4.86903 2.69272 4.69462 2.39585L4.16831 1.49995C3.9939 1.20308 4.0974 0.823473 4.39948 0.652073Z" fill="#232536"/>
<path fill-rule="evenodd" clip-rule="evenodd" d="M11.6007 0.652073C11.9028 0.823473 12.0063 1.20308 11.8319 1.49995L11.3056 2.39585C11.1312 2.69272 10.7449 2.79444 10.4428 2.62304C10.1407 2.45164 10.0372 2.07203 10.2117 1.77515L10.738 0.879262C10.9124 0.58239 11.2986 0.480674 11.6007 0.652073Z" fill="#232536"/>
<path fill-rule="evenodd" clip-rule="evenodd" d="M4.21053 17.8912C1.7048 16.5643 0 13.9611 0 10.9655C0 6.62334 3.58172 3.10336 8 3.10336C12.4183 3.10336 16 6.62334 16 10.9655C16 13.9611 14.2952 16.5643 11.7895 17.8912V20.2758C11.7895 22.3326 10.0929 24 8 24C5.90713 24 4.21053 22.3326 4.21053 20.2758V17.8912ZM1.26316 10.9655C1.26316 7.30894 4.27934 4.34474 8 4.34474C11.7207 4.34474 14.7368 7.30894 14.7368 10.9655C14.7368 13.6056 13.1644 15.8861 10.8869 16.9494C10.6667 17.0522 10.5263 17.2704 10.5263 17.51V18.6207H8.63158L8.63158 13.5832C9.83861 13.3029 10.7368 12.2373 10.7368 10.9655C10.7368 10.6227 10.4541 10.3448 10.1053 10.3448C9.75645 10.3448 9.47368 10.6227 9.47368 10.9655C9.47368 11.7653 8.81389 12.4137 8 12.4137C7.18611 12.4137 6.52632 11.7653 6.52632 10.9655C6.52632 10.6227 6.24355 10.3448 5.89474 10.3448C5.54592 10.3448 5.26316 10.6227 5.26316 10.9655C5.26316 12.2373 6.16139 13.3029 7.36842 13.5832L7.36842 18.6207H5.47368V17.51C5.47368 17.2704 5.33334 17.0522 5.11311 16.9494C2.8356 15.8861 1.26316 13.6056 1.26316 10.9655ZM10.5263 19.8621V20.2758C10.5263 21.647 9.39525 22.7586 8 22.7586C6.60475 22.7586 5.47368 21.647 5.47368 20.2758V19.8621H10.5263Z" fill="#232536"/>
</svg>
